<svg width="72" height="72" viewBox="0 0 72 72" fill="none" xmlns="http://www.w3.org/2000/svg">
<rect y="72" width="71.5" height="71.5" rx="35.75" transform="rotate(-90 0 72)" fill="white" fill-opacity="0.1"/>
<path d="M39.6121 41.6336L39.541 27.8158C39.541 27.3692 39.8653 27.0023 40.272 27.0023L63.4562 26.8828C64.0507 26.88 64.4034 27.6138 64.0649 28.1542L60.3217 34.1558C60.1482 34.4345 60.1482 34.8043 60.3274 35.0831L64.1332 41.0448C64.4745 41.5795 64.1332 42.319 63.5359 42.3219L40.3517 42.4414C39.9449 42.4414 39.615 42.083 39.6121 41.6336Z" fill="url(#paint0_linear_879_1085)"/>
<path d="M63.9341 28.3584L63.2799 29.4051L39.5467 29.5303L39.541 28.4836L63.9341 28.3584Z" fill="url(#paint1_linear_879_1085)"/>
<path d="M63.3406 39.7964L64.0062 40.8374L39.6131 40.9654L39.6074 39.9187L63.3406 39.7964Z" fill="url(#paint2_linear_879_1085)"/>
<path d="M31.6566 41.6336L31.7277 27.8158C31.7277 27.3692 31.4035 27.0023 30.9967 27.0023L7.81255 26.8828C7.21808 26.88 6.86538 27.6138 7.20386 28.1542L10.947 34.1558C11.1205 34.4345 11.1205 34.8043 10.9413 35.0831L7.13559 41.0448C6.79427 41.5795 7.13559 42.319 7.73291 42.3219L30.9171 42.4414C31.3238 42.4414 31.6538 42.083 31.6566 41.6336Z" fill="url(#paint3_linear_879_1085)"/>
<path d="M7.3291 28.3584L7.9833 29.4051L31.7165 29.5303L31.7221 28.4836L7.3291 28.3584Z" fill="url(#paint4_linear_879_1085)"/>
<path d="M7.93218 39.7964L7.2666 40.8374L31.6596 40.9654L31.6653 39.9187L7.93218 39.7964Z" fill="url(#paint5_linear_879_1085)"/>
<path style="mix-blend-mode:multiply" d="M59.9989 38.6284C61.199 26.3223 52.1958 15.3734 39.8898 14.1733C27.5837 12.9732 16.6348 21.9763 15.4347 34.2824C14.2346 46.5884 23.2377 57.5373 35.5438 58.7375C47.8498 59.9376 58.7988 50.9344 59.9989 38.6284Z" fill="url(#paint6_radial_879_1085)"/>
<path d="M56.9015 35.3083L55.6301 37.3449C55.4538 37.6265 55.3997 37.9678 55.4822 38.2892L56.0653 40.6159C56.1791 41.071 56.0226 41.5488 55.6643 41.8503L53.8268 43.3919C53.5737 43.6053 53.4144 43.9125 53.3916 44.2424L53.2238 46.6373C53.1897 47.1038 52.8939 47.5105 52.4615 47.6869L50.2373 48.5857C49.9301 48.7108 49.6855 48.9555 49.5603 49.2627L48.6615 51.4869C48.4851 51.9221 48.0784 52.2179 47.6119 52.2492L45.217 52.417C44.8871 52.4398 44.5799 52.5962 44.3665 52.8522L42.8249 54.6897C42.5234 55.048 42.0456 55.2045 41.5905 55.0907L39.2638 54.5076C38.9424 54.428 38.6011 54.482 38.3195 54.6555L36.2829 55.9269C35.8876 56.1744 35.3841 56.1744 34.9888 55.9269L32.9522 54.6555C32.6706 54.4792 32.3293 54.4251 32.0079 54.5076L29.6812 55.0907C29.2261 55.2045 28.7483 55.048 28.4468 54.6897L26.9052 52.8522C26.6918 52.5991 26.3847 52.4398 26.0547 52.417L23.6598 52.2492C23.1933 52.2151 22.7866 51.9193 22.6102 51.4869L21.7114 49.2627C21.5862 48.9555 21.3416 48.7108 21.0344 48.5857L18.8102 47.6869C18.375 47.5105 18.0792 47.1038 18.0479 46.6373L17.8801 44.2424C17.8573 43.9125 17.7009 43.6053 17.4449 43.3919L15.6075 41.8503C15.2491 41.5488 15.0926 41.071 15.2064 40.6159L15.7895 38.2892C15.8691 37.9678 15.8151 37.6265 15.6416 37.3449L14.3702 35.3083C14.1227 34.913 14.1227 34.4095 14.3702 34.0142L15.6416 31.9776C15.8179 31.696 15.872 31.3547 15.7895 31.0333L15.2064 28.7066C15.0926 28.2515 15.2491 27.7737 15.6075 27.4722L17.4449 25.9305C17.698 25.7172 17.8573 25.41 17.8801 25.0801L18.0479 22.6852C18.082 22.2187 18.3778 21.812 18.8102 21.6356L21.0344 20.7368C21.3416 20.6116 21.5862 20.367 21.7114 20.0598L22.6102 17.8356C22.7866 17.4004 23.1933 17.1046 23.6598 17.0733L26.0547 16.9055C26.3847 16.8827 26.6918 16.7263 26.9052 16.4703L28.4468 14.6328C28.7483 14.2745 29.2261 14.118 29.6812 14.2318L32.0079 14.8149C32.3293 14.8945 32.6706 14.8405 32.9522 14.667L34.9888 13.3956C35.3841 13.1481 35.8876 13.1481 36.2829 13.3956L38.3195 14.667C38.6011 14.8433 38.9424 14.8974 39.2638 14.8149L41.5905 14.2318C42.0456 14.118 42.5234 14.2745 42.8249 14.6328L44.3665 16.4703C44.5799 16.7234 44.8871 16.8827 45.217 16.9055L47.6119 17.0733C48.0784 17.1074 48.4851 17.4032 48.6615 17.8356L49.5603 20.0598C49.6855 20.367 49.9301 20.6116 50.2373 20.7368L52.4615 21.6356C52.8967 21.812 53.1925 22.2187 53.2238 22.6852L53.3916 25.0801C53.4144 25.41 53.5708 25.7172 53.8268 25.9305L55.6643 27.4722C56.0226 27.7737 56.1791 28.2515 56.0653 28.7066L55.4822 31.0333C55.4026 31.3547 55.4566 31.696 55.6301 31.9776L56.9015 34.0142C57.149 34.4095 57.149 34.913 56.9015 35.3083Z" fill="url(#paint7_linear_879_1085)"/>
<path d="M56.0436 35.3085L54.8489 37.2228C54.6726 37.5044 54.6186 37.8457 54.701 38.1671L55.2472 40.3516C55.3609 40.8067 55.2045 41.2845 54.8461 41.586L53.1196 43.0338C52.8664 43.2471 52.7072 43.5543 52.6844 43.8842L52.5251 46.1341C52.491 46.6006 52.1952 47.0073 51.7628 47.1837L49.6723 48.0256C49.3651 48.1507 49.1204 48.3953 48.9953 48.7025L48.1534 50.7931C47.977 51.2283 47.5703 51.5241 47.1038 51.5554L44.8539 51.7147C44.524 51.7374 44.2168 51.8939 44.0035 52.1499L42.5557 53.8764C42.2542 54.2348 41.7764 54.3912 41.3213 54.2774L39.1368 53.7313C38.8154 53.6517 38.4741 53.7057 38.1925 53.8792L36.2783 55.0739C35.8829 55.3213 35.3795 55.3213 34.9841 55.0739L33.0699 53.8792C32.7883 53.7029 32.4469 53.6488 32.1255 53.7313L29.9411 54.2774C29.486 54.3912 29.0081 54.2348 28.7066 53.8764L27.2589 52.1499C27.0456 51.8967 26.7384 51.7374 26.4084 51.7147L24.1586 51.5554C23.6921 51.5213 23.2853 51.2255 23.109 50.7931L22.2671 48.7025C22.1419 48.3953 21.8973 48.1507 21.5901 48.0256L19.4995 47.1837C19.0643 47.0073 18.7685 46.6006 18.7372 46.1341L18.578 43.8842C18.5552 43.5543 18.3988 43.2471 18.1428 43.0338L16.4163 41.586C16.0579 41.2845 15.9014 40.8067 16.0152 40.3516L16.5613 38.1671C16.641 37.8457 16.5869 37.5044 16.4134 37.2228L15.2188 35.3085C14.9713 34.9132 14.9713 34.4097 15.2188 34.0144L16.4134 32.1001C16.5898 31.8185 16.6438 31.4772 16.5613 31.1558L16.0152 28.9714C15.9014 28.5163 16.0579 28.0384 16.4163 27.7369L18.1428 26.2892C18.3959 26.0758 18.5552 25.7686 18.578 25.4387L18.7372 23.1888C18.7714 22.7224 19.0672 22.3156 19.4995 22.1393L21.5901 21.2973C21.8973 21.1722 22.1419 20.9276 22.2671 20.6204L23.109 18.5298C23.2853 18.0946 23.6921 17.7988 24.1586 17.7675L26.4084 17.6082C26.7384 17.5855 27.0456 17.429 27.2589 17.173L28.7066 15.4465C29.0081 15.0882 29.486 14.9317 29.9411 15.0455L32.1255 15.5916C32.4469 15.6712 32.7883 15.6172 33.0699 15.4437L34.9841 14.2491C35.3795 14.0016 35.8829 14.0016 36.2783 14.2491L38.1925 15.4437C38.4741 15.62 38.8154 15.6741 39.1368 15.5916L41.3213 15.0455C41.7764 14.9317 42.2542 15.0882 42.5557 15.4465L44.0035 17.173C44.2168 17.4262 44.524 17.5855 44.8539 17.6082L47.1038 17.7675C47.5703 17.8016 47.977 18.0975 48.1534 18.5298L48.9953 20.6204C49.1204 20.9276 49.3651 21.1722 49.6723 21.2973L51.7628 22.1393C52.198 22.3156 52.4938 22.7224 52.5251 23.1888L52.6844 25.4387C52.7072 25.7686 52.8636 26.0758 53.1196 26.2892L54.8461 27.7369C55.2045 28.0384 55.3609 28.5163 55.2472 28.9714L54.701 31.1558C54.6214 31.4772 54.6754 31.8185 54.8489 32.1001L56.0436 34.0144C56.291 34.4097 56.291 34.9132 56.0436 35.3085Z" fill="url(#paint8_linear_879_1085)"/>
<path d="M35.6331 51.509C44.9375 51.509 52.4802 43.9663 52.4802 34.662C52.4802 25.3576 44.9375 17.8149 35.6331 17.8149C26.3288 17.8149 18.7861 25.3576 18.7861 34.662C18.7861 43.9663 26.3288 51.509 35.6331 51.509Z" fill="url(#paint9_linear_879_1085)"/>
<path d="M35.6371 49.5241C43.8449 49.5241 50.4987 42.8703 50.4987 34.6624C50.4987 26.4546 43.8449 19.8008 35.6371 19.8008C27.4292 19.8008 20.7754 26.4546 20.7754 34.6624C20.7754 42.8703 27.4292 49.5241 35.6371 49.5241Z" fill="url(#paint10_linear_879_1085)"/>
<path style="mix-blend-mode:multiply" d="M35.6371 49.5241C43.8449 49.5241 50.4987 42.8703 50.4987 34.6624C50.4987 26.4546 43.8449 19.8008 35.6371 19.8008C27.4292 19.8008 20.7754 26.4546 20.7754 34.6624C20.7754 42.8703 27.4292 49.5241 35.6371 49.5241Z" fill="url(#paint11_radial_879_1085)"/>
<path style="mix-blend-mode:color-dodge" d="M49.6582 36.1062C49.6582 38.7458 50.0365 40.8818 50.5001 40.8818C50.9638 40.8818 51.342 38.7429 51.342 36.1062C51.342 33.4695 50.9638 31.3306 50.5001 31.3306C50.0365 31.3306 49.6582 33.4695 49.6582 36.1062Z" fill="url(#paint12_radial_879_1085)"/>
<path style="mix-blend-mode:color-dodge" d="M20.7931 40.8818C21.2581 40.8818 21.635 38.7437 21.635 36.1062C21.635 33.4687 21.2581 31.3306 20.7931 31.3306C20.3281 31.3306 19.9512 33.4687 19.9512 36.1062C19.9512 38.7437 20.3281 40.8818 20.7931 40.8818Z" fill="url(#paint13_radial_879_1085)"/>
<path d="M22.5068 35.4128V32.8355H23.3923C23.582 32.8355 23.7533 32.8619 23.9061 32.9146C24.0616 32.9646 24.1855 33.0503 24.2777 33.1715C24.3699 33.2927 24.4161 33.4574 24.4161 33.6656C24.4161 33.8659 24.3699 34.0306 24.2777 34.1597C24.1855 34.2888 24.0629 34.385 23.9101 34.4483C23.7572 34.5089 23.5899 34.5392 23.4081 34.5392H23.0879V35.4128H22.5068ZM23.0879 34.0767H23.3725C23.6887 34.0767 23.8468 33.9397 23.8468 33.6656C23.8468 33.5312 23.8047 33.4363 23.7204 33.381C23.636 33.3257 23.5148 33.298 23.3567 33.298H23.0879V34.0767Z" fill="white"/>
<path d="M24.8615 35.4128V32.8355H25.7905C25.9723 32.8355 26.1383 32.8606 26.2885 32.9106C26.4387 32.9581 26.5586 33.0397 26.6482 33.1557C26.7378 33.2716 26.7826 33.4324 26.7826 33.6379C26.7826 33.8277 26.7405 33.9845 26.6561 34.1083C26.5744 34.2296 26.4638 34.3205 26.3241 34.3811L26.9091 35.4128H26.2569L25.7628 34.4838H25.4426V35.4128H24.8615ZM25.4426 34.0214H25.743C25.8959 34.0214 26.0118 33.9897 26.0909 33.9265C26.1726 33.8606 26.2134 33.7644 26.2134 33.6379C26.2134 33.5115 26.1726 33.4232 26.0909 33.3731C26.0118 33.323 25.8959 33.298 25.743 33.298H25.4426V34.0214Z" fill="white"/>
<path d="M28.3332 35.4602C28.1013 35.4602 27.8971 35.4062 27.7206 35.2981C27.5466 35.1901 27.4096 35.0359 27.3095 34.8357C27.212 34.6327 27.1632 34.3916 27.1632 34.1123C27.1632 33.8303 27.212 33.5918 27.3095 33.3968C27.4096 33.1992 27.5466 33.049 27.7206 32.9462C27.8971 32.8408 28.1013 32.7881 28.3332 32.7881C28.5651 32.7881 28.7681 32.8408 28.942 32.9462C29.1185 33.049 29.2556 33.1992 29.3531 33.3968C29.4532 33.5945 29.5033 33.8329 29.5033 34.1123C29.5033 34.3916 29.4532 34.6327 29.3531 34.8357C29.2556 35.0359 29.1185 35.1901 28.942 35.2981C28.7681 35.4062 28.5651 35.4602 28.3332 35.4602ZM28.3332 34.9582C28.5098 34.9582 28.6495 34.8818 28.7522 34.7289C28.855 34.5761 28.9064 34.3705 28.9064 34.1123C28.9064 33.854 28.855 33.6524 28.7522 33.5075C28.6495 33.3626 28.5098 33.2901 28.3332 33.2901C28.1567 33.2901 28.017 33.3626 27.9142 33.5075C27.8115 33.6524 27.7601 33.854 27.7601 34.1123C27.7601 34.3705 27.8115 34.5761 27.9142 34.7289C28.017 34.8818 28.1567 34.9582 28.3332 34.9582Z" fill="white"/>
<path d="M29.9879 35.4128V32.8355H31.6125V33.3257H30.5689V33.9225H31.4623V34.4127H30.5689V35.4128H29.9879Z" fill="white"/>
<path d="M32.0608 35.4128V32.8355H33.6735V33.3257H32.6419V33.8435H33.5194V34.3297H32.6419V34.9226H33.7131V35.4128H32.0608Z" fill="white"/>
<path d="M35.013 35.4602C34.8443 35.4602 34.6757 35.4286 34.507 35.3653C34.341 35.3021 34.1921 35.2099 34.0603 35.0886L34.3924 34.6894C34.4846 34.7685 34.5874 34.833 34.7007 34.8831C34.814 34.9332 34.9234 34.9582 35.0288 34.9582C35.15 34.9582 35.2396 34.9358 35.2976 34.891C35.3582 34.8462 35.3885 34.7856 35.3885 34.7092C35.3885 34.6275 35.3542 34.5682 35.2857 34.5313C35.2198 34.4918 35.1302 34.4483 35.0169 34.4008L34.6809 34.2585C34.594 34.2216 34.511 34.1729 34.4319 34.1123C34.3528 34.049 34.2883 33.9713 34.2382 33.8791C34.1881 33.7868 34.1631 33.6788 34.1631 33.5549C34.1631 33.4126 34.2013 33.2835 34.2777 33.1676C34.3568 33.0516 34.4648 32.9594 34.6019 32.8909C34.7415 32.8223 34.901 32.7881 35.0802 32.7881C35.2277 32.7881 35.3753 32.8171 35.5229 32.875C35.6705 32.933 35.7996 33.0174 35.9103 33.128L35.6138 33.4956C35.5295 33.4298 35.4451 33.3797 35.3608 33.3454C35.2765 33.3085 35.1829 33.2901 35.0802 33.2901C34.98 33.2901 34.8997 33.3112 34.839 33.3533C34.7811 33.3929 34.7521 33.4495 34.7521 33.5233C34.7521 33.6024 34.789 33.6617 34.8628 33.7012C34.9392 33.7407 35.0327 33.7829 35.1434 33.8277L35.4754 33.9621C35.6309 34.0253 35.7548 34.1123 35.847 34.223C35.9392 34.3336 35.9854 34.4799 35.9854 34.6617C35.9854 34.804 35.9471 34.9358 35.8707 35.057C35.7943 35.1782 35.6836 35.2757 35.5387 35.3495C35.3938 35.4233 35.2185 35.4602 35.013 35.4602Z" fill="white"/>
<path d="M37.1399 35.4602C36.9713 35.4602 36.8026 35.4286 36.634 35.3653C36.4679 35.3021 36.3191 35.2099 36.1873 35.0886L36.5193 34.6894C36.6116 34.7685 36.7143 34.833 36.8277 34.8831C36.941 34.9332 37.0503 34.9582 37.1557 34.9582C37.277 34.9582 37.3666 34.9358 37.4245 34.891C37.4851 34.8462 37.5154 34.7856 37.5154 34.7092C37.5154 34.6275 37.4812 34.5682 37.4127 34.5313C37.3468 34.4918 37.2572 34.4483 37.1439 34.4008L36.8079 34.2585C36.7209 34.2216 36.6379 34.1729 36.5589 34.1123C36.4798 34.049 36.4152 33.9713 36.3652 33.8791C36.3151 33.7868 36.2901 33.6788 36.2901 33.5549C36.2901 33.4126 36.3283 33.2835 36.4047 33.1676C36.4838 33.0516 36.5918 32.9594 36.7288 32.8909C36.8685 32.8223 37.0279 32.7881 37.2071 32.7881C37.3547 32.7881 37.5023 32.8171 37.6498 32.875C37.7974 32.933 37.9265 33.0174 38.0372 33.128L37.7408 33.4956C37.6564 33.4298 37.5721 33.3797 37.4878 33.3454C37.4034 33.3085 37.3099 33.2901 37.2071 33.2901C37.107 33.2901 37.0266 33.3112 36.966 33.3533C36.908 33.3929 36.879 33.4495 36.879 33.5233C36.879 33.6024 36.9159 33.6617 36.9897 33.7012C37.0661 33.7407 37.1597 33.7829 37.2704 33.8277L37.6024 33.9621C37.7579 34.0253 37.8817 34.1123 37.974 34.223C38.0662 34.3336 38.1123 34.4799 38.1123 34.6617C38.1123 34.804 38.0741 34.9358 37.9977 35.057C37.9213 35.1782 37.8106 35.2757 37.6657 35.3495C37.5207 35.4233 37.3455 35.4602 37.1399 35.4602Z" fill="white"/>
<path d="M38.5498 35.4128V32.8355H39.1308V35.4128H38.5498Z" fill="white"/>
<path d="M40.7862 35.4602C40.5543 35.4602 40.3501 35.4062 40.1735 35.2981C39.9996 35.1901 39.8625 35.0359 39.7624 34.8357C39.6649 34.6327 39.6162 34.3916 39.6162 34.1123C39.6162 33.8303 39.6649 33.5918 39.7624 33.3968C39.8625 33.1992 39.9996 33.049 40.1735 32.9462C40.3501 32.8408 40.5543 32.7881 40.7862 32.7881C41.0181 32.7881 41.221 32.8408 41.3949 32.9462C41.5715 33.049 41.7085 33.1992 41.806 33.3968C41.9062 33.5945 41.9562 33.8329 41.9562 34.1123C41.9562 34.3916 41.9062 34.6327 41.806 34.8357C41.7085 35.0359 41.5715 35.1901 41.3949 35.2981C41.221 35.4062 41.0181 35.4602 40.7862 35.4602ZM40.7862 34.9582C40.9628 34.9582 41.1024 34.8818 41.2052 34.7289C41.308 34.5761 41.3594 34.3705 41.3594 34.1123C41.3594 33.854 41.308 33.6524 41.2052 33.5075C41.1024 33.3626 40.9628 33.2901 40.7862 33.2901C40.6096 33.2901 40.47 33.3626 40.3672 33.5075C40.2644 33.6524 40.213 33.854 40.213 34.1123C40.213 34.3705 40.2644 34.5761 40.3672 34.7289C40.47 34.8818 40.6096 34.9582 40.7862 34.9582Z" fill="white"/>
<path d="M42.4408 35.4128V32.8355H43.0377L43.7097 34.1162L43.9627 34.6854H43.9785C43.9679 34.5484 43.9534 34.3956 43.935 34.2269C43.9165 34.0583 43.9073 33.8975 43.9073 33.7447V32.8355H44.4607V35.4128H43.8638L43.1919 34.1281L42.9389 33.5668H42.9231C42.9362 33.7091 42.9507 33.8619 42.9665 34.0253C42.985 34.1887 42.9942 34.3468 42.9942 34.4997V35.4128H42.4408Z" fill="white"/>
<path d="M45.6744 34.1083L45.6111 34.3455H46.1606L46.1013 34.1083C46.067 33.9792 46.0315 33.8422 45.9946 33.6972C45.9603 33.5523 45.9261 33.4126 45.8918 33.2782H45.876C45.8444 33.4153 45.8114 33.5563 45.7772 33.7012C45.7455 33.8435 45.7113 33.9792 45.6744 34.1083ZM44.7415 35.4128L45.5479 32.8355H46.2475L47.0539 35.4128H46.4373L46.2792 34.8001H45.4926L45.3344 35.4128H44.7415Z" fill="white"/>
<path d="M47.3355 35.4128V32.8355H47.9166V34.9226H48.9364V35.4128H47.3355Z" fill="white"/>
<defs>
<linearGradient id="paint0_linear_879_1085" x1="39.4735" y1="34.6676" x2="62.4398" y2="35.5873" gradientUnits="userSpaceOnUse">
<stop stop-color="#1A232F"/>
<stop offset="0.09" stop-color="#171F29"/>
<stop offset="0.39" stop-color="#10151C"/>
<stop offset="0.47" stop-color="#161D27"/>
<stop offset="0.63" stop-color="#202A39"/>
<stop offset="0.8" stop-color="#263243"/>
<stop offset="1" stop-color="#283547"/>
</linearGradient>
<linearGradient id="paint1_linear_879_1085" x1="39.541" y1="28.9443" x2="63.9341" y2="28.9443" gradientUnits="userSpaceOnUse">
<stop stop-color="#EFCC94"/>
<stop offset="0.04" stop-color="#B78E5C"/>
<stop offset="0.28" stop-color="#FFDEA4"/>
<stop offset="0.64" stop-color="#B28958"/>
<stop offset="0.97" stop-color="#FFDEA4"/>
</linearGradient>
<linearGradient id="paint2_linear_879_1085" x1="39.6074" y1="40.3795" x2="64.0062" y2="40.3795" gradientUnits="userSpaceOnUse">
<stop stop-color="#EFCC94"/>
<stop offset="0.04" stop-color="#B78E5C"/>
<stop offset="0.28" stop-color="#FFDEA4"/>
<stop offset="0.64" stop-color="#B28958"/>
<stop offset="0.97" stop-color="#FFDEA4"/>
</linearGradient>
<linearGradient id="paint3_linear_879_1085" x1="31.7979" y1="34.6336" x2="8.83157" y2="35.5532" gradientUnits="userSpaceOnUse">
<stop stop-color="#1A232F"/>
<stop offset="0.09" stop-color="#171F29"/>
<stop offset="0.39" stop-color="#10151C"/>
<stop offset="0.47" stop-color="#161D27"/>
<stop offset="0.63" stop-color="#202A39"/>
<stop offset="0.8" stop-color="#263243"/>
<stop offset="1" stop-color="#283547"/>
</linearGradient>
<linearGradient id="paint4_linear_879_1085" x1="7.3291" y1="-46.1518" x2="31.7221" y2="-46.1518" gradientUnits="userSpaceOnUse">
<stop stop-color="#EFCC94"/>
<stop offset="0.04" stop-color="#B78E5C"/>
<stop offset="0.28" stop-color="#FFDEA4"/>
<stop offset="0.64" stop-color="#B28958"/>
<stop offset="0.97" stop-color="#FFDEA4"/>
</linearGradient>
<linearGradient id="paint5_linear_879_1085" x1="7.2666" y1="40.3795" x2="31.6653" y2="40.3795" gradientUnits="userSpaceOnUse">
<stop stop-color="#EFCC94"/>
<stop offset="0.04" stop-color="#B78E5C"/>
<stop offset="0.28" stop-color="#FFDEA4"/>
<stop offset="0.64" stop-color="#B28958"/>
<stop offset="0.97" stop-color="#FFDEA4"/>
</linearGradient>
<radialGradient id="paint6_radial_879_1085" cx="0" cy="0" r="1" gradientUnits="userSpaceOnUse" gradientTransform="translate(37.7176 36.4515) scale(22.3878 22.3878)">
<stop/>
<stop offset="0.94" stop-color="#57567E" stop-opacity="0"/>
</radialGradient>
<linearGradient id="paint7_linear_879_1085" x1="35.6344" y1="56.1147" x2="35.6344" y2="13.205" gradientUnits="userSpaceOnUse">
<stop offset="0.03" stop-color="#FFDEA4"/>
<stop offset="0.36" stop-color="#B28958"/>
<stop offset="0.49" stop-color="#FFDEA4"/>
<stop offset="0.54" stop-color="#F3D098"/>
<stop offset="0.66" stop-color="#D8B37D"/>
<stop offset="0.77" stop-color="#C69E6B"/>
<stop offset="0.89" stop-color="#BA925F"/>
<stop offset="1" stop-color="#B78E5C"/>
</linearGradient>
<linearGradient id="paint8_linear_879_1085" x1="35.6326" y1="55.2587" x2="35.6326" y2="14.0613" gradientUnits="userSpaceOnUse">
<stop stop-color="#B78E5C"/>
<stop offset="0.11" stop-color="#BA925F"/>
<stop offset="0.23" stop-color="#C69E6B"/>
<stop offset="0.34" stop-color="#D8B37D"/>
<stop offset="0.46" stop-color="#F3D098"/>
<stop offset="0.51" stop-color="#FFDEA4"/>
<stop offset="0.64" stop-color="#B28958"/>
<stop offset="0.97" stop-color="#FFDEA4"/>
</linearGradient>
<linearGradient id="paint9_linear_879_1085" x1="35.6331" y1="51.509" x2="35.6331" y2="17.8149" gradientUnits="userSpaceOnUse">
<stop stop-color="#C7C9D6"/>
<stop offset="1" stop-color="white"/>
</linearGradient>
<linearGradient id="paint10_linear_879_1085" x1="35.6371" y1="49.5241" x2="35.6371" y2="19.8008" gradientUnits="userSpaceOnUse">
<stop stop-color="#283547"/>
<stop offset="0.2" stop-color="#263243"/>
<stop offset="0.37" stop-color="#202A39"/>
<stop offset="0.53" stop-color="#161D27"/>
<stop offset="0.61" stop-color="#10151C"/>
<stop offset="0.91" stop-color="#171F29"/>
<stop offset="1" stop-color="#1A232F"/>
</linearGradient>
<radialGradient id="paint11_radial_879_1085" cx="0" cy="0" r="1" gradientUnits="userSpaceOnUse" gradientTransform="translate(36.6098 36.1216) scale(16.7332 16.7332)">
<stop offset="0.75" stop-color="#1A232F" stop-opacity="0"/>
<stop offset="0.85" stop-color="#141B25" stop-opacity="0.51"/>
<stop offset="0.98" stop-color="#10151C"/>
</radialGradient>
<radialGradient id="paint12_radial_879_1085" cx="0" cy="0" r="1" gradientUnits="userSpaceOnUse" gradientTransform="translate(48.6695 36.1062) scale(0.859613 4.77564)">
<stop stop-color="white"/>
<stop offset="0.04" stop-color="#F5FAFB" stop-opacity="0.91"/>
<stop offset="0.15" stop-color="#DFEEF2" stop-opacity="0.7"/>
<stop offset="0.26" stop-color="#CCE4EB" stop-opacity="0.51"/>
<stop offset="0.37" stop-color="#BBDCE4" stop-opacity="0.35"/>
<stop offset="0.49" stop-color="#AED5DF" stop-opacity="0.23"/>
<stop offset="0.6" stop-color="#A4CFDB" stop-opacity="0.13"/>
<stop offset="0.73" stop-color="#9CCCD8" stop-opacity="0.06"/>
<stop offset="0.85" stop-color="#98C9D6" stop-opacity="0.01"/>
<stop offset="1" stop-color="#97C9D6" stop-opacity="0"/>
</radialGradient>
<radialGradient id="paint13_radial_879_1085" cx="0" cy="0" r="1" gradientUnits="userSpaceOnUse" gradientTransform="translate(18.3574 36.1062) scale(0.859613 4.77564)">
<stop stop-color="white"/>
<stop offset="0.04" stop-color="#F5FAFB" stop-opacity="0.91"/>
<stop offset="0.15" stop-color="#DFEEF2" stop-opacity="0.7"/>
<stop offset="0.26" stop-color="#CCE4EB" stop-opacity="0.51"/>
<stop offset="0.37" stop-color="#BBDCE4" stop-opacity="0.35"/>
<stop offset="0.49" stop-color="#AED5DF" stop-opacity="0.23"/>
<stop offset="0.6" stop-color="#A4CFDB" stop-opacity="0.13"/>
<stop offset="0.73" stop-color="#9CCCD8" stop-opacity="0.06"/>
<stop offset="0.85" stop-color="#98C9D6" stop-opacity="0.01"/>
<stop offset="1" stop-color="#97C9D6" stop-opacity="0"/>
</radialGradient>
</defs>
</svg>
