<svg width="64" height="64" viewBox="0 0 64 64" fill="none" xmlns="http://www.w3.org/2000/svg">
<rect y="64" width="64" height="64" rx="32" transform="rotate(-90 0 64)" fill="white" fill-opacity="0.1"/>
<path d="M42.9699 23.7338C42.9699 23.7338 43.7761 24.652 44.9023 24.652C45.7917 24.652 46.438 24.0807 46.438 23.2985C46.438 22.3394 45.6125 21.8973 44.6143 21.8973H44.0257L43.6738 21.0539L45.2351 19.0882C45.5678 18.6664 45.8493 18.4012 45.8493 18.4012C45.8493 18.4012 45.5998 18.4148 45.0943 18.4148H42.554V17H47.7561V18.0339L45.6701 20.5981C46.8475 20.775 47.9992 21.666 47.9992 23.2372C47.9992 24.7813 46.8987 26.2096 44.9983 26.2096C43.1874 26.2096 42.1829 24.9989 42.1829 24.9989L42.9699 23.7338Z" fill="white"/>
<path d="M32.8222 25.6445L39.6945 38.6495L43.0858 32.2219L36.5975 19.9446H29.047L25.918 25.869L22.7891 19.9446H16L25.8796 38.6495L25.918 38.5815L25.9564 38.6495L32.8222 25.6445Z" fill="white"/>
<path d="M16.0718 47.4647H17.0764C17.0764 47.7776 17.3324 48.0769 17.7867 48.0769C18.209 48.0769 18.4905 47.8524 18.4905 47.5531C18.4905 47.2947 18.305 47.1791 17.985 47.1043L17.4092 46.9478C16.4365 46.6757 16.187 46.1247 16.187 45.5399C16.187 44.8256 16.8525 44.1726 17.7931 44.1726C18.5609 44.1726 19.4312 44.5876 19.4184 45.6079H18.401C18.401 45.295 18.1322 45.0977 17.8251 45.0977C17.4923 45.0977 17.262 45.3017 17.262 45.5874C17.262 45.8255 17.4731 45.9616 17.7227 46.0227L18.4138 46.22C19.3864 46.4853 19.5591 47.1314 19.5591 47.5531C19.5591 48.485 18.6825 48.9951 17.8059 48.9951C16.9548 48.9951 16.091 48.4442 16.0718 47.4647Z" fill="white"/>
<path d="M20.4484 46.5805C20.4484 45.1249 21.5489 44.1726 22.7967 44.1726C23.5453 44.1726 24.1532 44.5263 24.5499 45.0569L23.7949 45.6963C23.5709 45.4106 23.2062 45.2337 22.8159 45.2337C22.0672 45.2337 21.5297 45.8051 21.5297 46.5805C21.5297 47.3491 22.0672 47.9341 22.8159 47.9341C23.2062 47.9341 23.5709 47.7573 23.7949 47.4716L24.5499 48.1109C24.1532 48.6414 23.5453 48.9951 22.7967 48.9951C21.5489 48.9951 20.4484 48.0361 20.4484 46.5805Z" fill="white"/>
<path d="M29.7209 46.3032V48.8743H28.6459V46.3848C28.6459 45.6502 28.23 45.2557 27.7501 45.2557C27.2573 45.2557 26.6495 45.5618 26.6495 46.4528V48.8811H25.5745V41.7936H26.6559V44.9837C26.8671 44.4258 27.5645 44.1674 27.9932 44.1674C29.1066 44.1742 29.7209 44.97 29.7209 46.3032Z" fill="white"/>
<path d="M30.8443 46.5805C30.8443 45.1249 31.9065 44.1726 33.135 44.1726C34.3635 44.1726 35.4385 45.1249 35.4385 46.5805C35.4385 48.0361 34.3635 48.9951 33.135 48.9951C31.9065 48.9951 30.8443 48.0361 30.8443 46.5805ZM34.3572 46.5805C34.3572 45.7915 33.8004 45.2337 33.135 45.2337C32.4695 45.2337 31.9256 45.7915 31.9256 46.5805C31.9256 47.3831 32.4695 47.9341 33.135 47.9341C33.8004 47.9341 34.3572 47.3831 34.3572 46.5805Z" fill="white"/>
<path d="M36.3565 46.5805C36.3565 45.1249 37.4187 44.1726 38.6472 44.1726C39.8757 44.1726 40.9507 45.1249 40.9507 46.5805C40.9507 48.0361 39.8757 48.9951 38.6472 48.9951C37.425 48.9951 36.3565 48.0361 36.3565 46.5805ZM39.8694 46.5805C39.8694 45.7915 39.3127 45.2337 38.6472 45.2337C37.9817 45.2337 37.4378 45.7915 37.4378 46.5805C37.4378 47.3831 37.9817 47.9341 38.6472 47.9341C39.3191 47.9341 39.8694 47.3831 39.8694 46.5805Z" fill="white"/>
<path d="M42.138 48.8811V41.7936H43.213V48.8811H42.138Z" fill="white"/>
<path d="M44.3869 47.4647H45.3914C45.3914 47.7776 45.6474 48.0769 46.1017 48.0769C46.524 48.0769 46.8056 47.8524 46.8056 47.5531C46.8056 47.2947 46.62 47.1791 46.3001 47.1043L45.7242 46.9478C44.7516 46.6757 44.502 46.1247 44.502 45.5399C44.502 44.8256 45.1675 44.1726 46.1081 44.1726C46.8759 44.1726 47.7461 44.5876 47.7334 45.6079H46.7096C46.7096 45.295 46.4409 45.0977 46.1337 45.0977C45.8009 45.0977 45.5706 45.3017 45.5706 45.5874C45.5706 45.8255 45.7818 45.9616 46.0313 46.0227L46.7224 46.22C47.695 46.4853 47.8677 47.1314 47.8677 47.5531C47.8677 48.485 46.9912 48.9951 46.1145 48.9951C45.2634 48.9951 44.406 48.4442 44.3869 47.4647Z" fill="white"/>
</svg>
